<?xml version="1.0" encoding="UTF-8"?>
<!--Generator: Apple Native CoreSVG 175.5-->
<!DOCTYPE svg
PUBLIC "-//W3C//DTD SVG 1.1//EN"
       "http://www.w3.org/Graphics/SVG/1.1/DTD/svg11.dtd">
<svg version="1.1" xmlns="http://www.w3.org/2000/svg" xmlns:xlink="http://www.w3.org/1999/xlink" width="14.3115" height="14.4507">
 <g>
  <rect height="14.4507" opacity="0" width="14.3115" x="0" y="0"/>
  <path d="M0 5.84473C0 9.06738 2.62207 11.6895 5.84473 11.6895C7.11914 11.6895 8.28369 11.2793 9.24316 10.5908L12.8467 14.2017C13.0151 14.3701 13.2349 14.4507 13.4692 14.4507C13.9673 14.4507 14.3115 14.0771 14.3115 13.5864C14.3115 13.3521 14.2236 13.1396 14.0698 12.9858L10.4883 9.38232C11.2427 8.40088 11.6895 7.17773 11.6895 5.84473C11.6895 2.62207 9.06738 0 5.84473 0C2.62207 0 0 2.62207 0 5.84473ZM1.25244 5.84473C1.25244 3.31055 3.31055 1.25244 5.84473 1.25244C8.37891 1.25244 10.437 3.31055 10.437 5.84473C10.437 8.37891 8.37891 10.437 5.84473 10.437C3.31055 10.437 1.25244 8.37891 1.25244 5.84473Z" fill="#333333"/>
 </g>
</svg>
