<?xml version="1.0" encoding="UTF-8"?>
<!--Generator: Apple Native CoreSVG 175.5-->
<!DOCTYPE svg
PUBLIC "-//W3C//DTD SVG 1.1//EN"
       "http://www.w3.org/Graphics/SVG/1.1/DTD/svg11.dtd">
<svg version="1.1" xmlns="http://www.w3.org/2000/svg" xmlns:xlink="http://www.w3.org/1999/xlink" width="14.9414" height="14.9487">
 <g>
  <rect height="14.9487" opacity="0" width="14.9414" x="0" y="0"/>
  <path d="M7.4707 14.9414C11.5576 14.9414 14.9414 11.5503 14.9414 7.4707C14.9414 3.38379 11.5503 0 7.46338 0C3.38379 0 0 3.38379 0 7.4707C0 11.5503 3.39111 14.9414 7.4707 14.9414ZM7.4707 13.6963C4.01367 13.6963 1.25244 10.9277 1.25244 7.4707C1.25244 4.01367 4.00635 1.24512 7.46338 1.24512C10.9204 1.24512 13.6963 4.01367 13.6963 7.4707C13.6963 10.9277 10.9277 13.6963 7.4707 13.6963ZM4.96582 10.5688C5.13428 10.5688 5.28076 10.5029 5.39062 10.3857L7.46338 8.30566L9.55078 10.3857C9.66064 10.4956 9.7998 10.5688 9.96826 10.5688C10.2905 10.5688 10.5542 10.3052 10.5542 9.97559C10.5542 9.80713 10.4956 9.67529 10.3784 9.55811L8.29834 7.47803L10.3857 5.3833C10.5103 5.25879 10.5615 5.13428 10.5615 4.97314C10.5615 4.65088 10.2979 4.38721 9.97559 4.38721C9.82178 4.38721 9.69727 4.4458 9.57275 4.57031L7.46338 6.65771L5.37598 4.57764C5.26611 4.46045 5.13428 4.40186 4.96582 4.40186C4.64355 4.40186 4.37988 4.6582 4.37988 4.98047C4.37988 5.1416 4.4458 5.28076 4.55566 5.39062L6.63574 7.47803L4.55566 9.56543C4.4458 9.67529 4.37988 9.81445 4.37988 9.97559C4.37988 10.3052 4.64355 10.5688 4.96582 10.5688Z" fill="#888888"/>
 </g>
</svg>